<?xml version="1.0" encoding="iso-8859-1"?>
<!-- Generator: Adobe Illustrator 19.0.0, SVG Export Plug-In . SVG Version: 6.00 Build 0)  -->
<svg version="1.1" id="Capa_1" xmlns="http://www.w3.org/2000/svg" xmlns:xlink="http://www.w3.org/1999/xlink" x="0px" y="0px"
	 viewBox="0 0 511.003 511.003" style="enable-background:new 0 0 511.003 511.003;" xml:space="preserve">
<g>
	<path fill="white" d="M373.447,115.132C352.2,73.528,321.278,36.986,284.026,9.456c-17.062-12.608-39.986-12.608-57.048,0
		c-37.253,27.529-68.174,64.071-89.421,105.675c-21.952,42.984-33.555,91.523-33.555,140.37c0,48.846,11.603,97.386,33.555,140.37
		c21.247,41.604,52.168,78.146,89.421,105.676c8.531,6.304,18.527,9.456,28.524,9.456s19.993-3.152,28.524-9.456
		c37.253-27.53,68.174-64.072,89.421-105.676c21.952-42.984,33.555-91.523,33.555-140.37
		C407.002,206.655,395.399,158.116,373.447,115.132z M161.552,103.002h187.9c3.39,5.555,6.596,11.223,9.603,17H151.948
		C154.955,114.225,158.162,108.557,161.552,103.002z M235.893,21.52c5.864-4.334,12.737-6.5,19.609-6.5s13.745,2.167,19.609,6.5
		c24.851,18.364,46.721,40.966,64.546,66.482H171.346C189.171,62.486,211.042,39.884,235.893,21.52z M144.673,135.002H366.33
		c16.825,37.536,25.672,78.894,25.672,120.5c0,41.606-8.847,82.963-25.672,120.5H144.673c-16.825-37.537-25.672-78.894-25.672-120.5
		C119.002,213.896,127.849,172.538,144.673,135.002z M349.452,408.002h-187.9c-3.39-5.555-6.597-11.223-9.603-17h207.107
		C356.048,396.779,352.841,402.447,349.452,408.002z M275.11,489.484c-11.728,8.667-27.489,8.667-39.218,0
		c-24.851-18.364-46.721-40.966-64.546-66.482h168.31C321.832,448.517,299.961,471.119,275.11,489.484z"/>
	<path fill="white" d="M231.502,280.002c-4.142,0-7.5,3.358-7.5,7.5s3.358,7.5,7.5,7.5h16.5v17h-16.5c-4.142,0-7.5,3.358-7.5,7.5
		s3.358,7.5,7.5,7.5h16.5v16.5c0,4.142,3.358,7.5,7.5,7.5s7.5-3.358,7.5-7.5v-16.5h16.5c4.142,0,7.5-3.358,7.5-7.5
		s-3.358-7.5-7.5-7.5h-16.5v-17h16.5c4.142,0,7.5-3.358,7.5-7.5s-3.358-7.5-7.5-7.5h-16.5v-17h16.5c4.142,0,7.5-3.358,7.5-7.5
		s-3.358-7.5-7.5-7.5h-16.5v-17h16.5c4.142,0,7.5-3.358,7.5-7.5s-3.358-7.5-7.5-7.5h-16.5v-17h16.5c4.142,0,7.5-3.358,7.5-7.5
		s-3.358-7.5-7.5-7.5h-16.5v-16.5c0-4.142-3.358-7.5-7.5-7.5s-7.5,3.358-7.5,7.5v16.5h-16.5c-4.142,0-7.5,3.358-7.5,7.5
		s3.358,7.5,7.5,7.5h16.5v17h-16.5c-4.142,0-7.5,3.358-7.5,7.5s3.358,7.5,7.5,7.5h16.5v17h-16.5c-4.142,0-7.5,3.358-7.5,7.5
		s3.358,7.5,7.5,7.5h16.5v17H231.502z"/>
</g>
<g>
</g>
<g>
</g>
<g>
</g>
<g>
</g>
<g>
</g>
<g>
</g>
<g>
</g>
<g>
</g>
<g>
</g>
<g>
</g>
<g>
</g>
<g>
</g>
<g>
</g>
<g>
</g>
<g>
</g>
</svg>
