<?xml version="1.0" encoding="iso-8859-1"?>
<!-- Generator: Adobe Illustrator 19.0.0, SVG Export Plug-In . SVG Version: 6.00 Build 0)  -->
<svg version="1.1" id="Layer_1" xmlns="http://www.w3.org/2000/svg" xmlns:xlink="http://www.w3.org/1999/xlink" x="0px" y="0px"
	 viewBox="0 0 512.213 512.213" style="enable-background:new 0 0 512.213 512.213;" xml:space="preserve">
<g transform="translate(0 1)">
	<g>
		<g>
			<path fill="white" d="M489.067,187.8L292.8,13.72c-20.48-19.627-52.907-19.627-73.387,0l-65.707,59.733v-23.04h8.533
				c5.12,0,8.533-3.413,8.533-8.533V7.747c0-5.12-3.413-8.533-8.533-8.533H59.84c-5.12,0-8.533,3.413-8.533,8.533V41.88
				c0,5.12,3.413,8.533,8.533,8.533h8.533v98.133L23.147,187.8c-5.973,5.973-7.68,13.653-5.12,21.333
				c2.56,6.827,10.24,11.947,17.92,11.947h32.427v238.933H59.84c-5.12,0-8.533,3.413-8.533,8.533v34.133
				c0,5.12,3.413,8.533,8.533,8.533h392.533c4.267,0,8.533-3.413,8.533-9.387v-34.133c0-2.56-0.853-4.267-2.56-5.973
				c-1.707-1.707-3.413-2.56-5.973-2.56h-8.533V220.227h32.427c8.533,0,15.36-4.267,17.92-11.947
				C496.747,201.453,495.04,192.92,489.067,187.8z M477.973,203.16c-0.853,0.853-1.707,0.853-1.707,0.853h-40.96
				c-5.12,0-8.533,3.413-8.533,8.533v256c0,5.12,3.413,8.533,8.533,8.533h8.533v17.067H68.373V477.08h8.533
				c5.12,0,8.533-3.413,8.533-8.533v-256c0-5.12-3.413-8.533-8.533-8.533h-40.96c-0.853,0-1.707,0-1.707-0.853s0-1.707,0.853-2.56
				l47.787-40.96c1.707-1.707,2.56-4.267,2.56-6.827V41.88c0-5.12-3.413-8.533-8.533-8.533h-8.533V16.28h85.333v17.067h-8.533
				c-5.12,0-8.533,3.413-8.533,8.533v51.2c0,3.413,1.707,6.827,5.12,9.387c3.413,0.853,6.827,0.853,9.387-1.707l80.213-73.387
				c13.653-13.653,34.987-13.653,49.493,0l196.267,174.08C477.973,201.453,478.827,202.307,477.973,203.16z"/>
			<path fill="white" d="M307.307,238.147h-34.133v-34.133h25.6c5.12,0,8.533-3.413,8.533-8.533s-3.413-8.533-8.533-8.533h-68.267
				c-5.12,0-8.533,3.413-8.533,8.533s3.413,8.533,8.533,8.533h25.6v34.133H145.173c-5.12,0-8.533,3.413-8.533,8.533v51.2
				c0,5.12,3.413,8.533,8.533,8.533H295.36c1.707,0,3.413,1.707,3.413,3.413v47.787c0,5.12,3.413,8.533,8.533,8.533h51.2
				c5.12,0,8.533-3.413,8.533-8.533V297.88C367.04,264.6,340.587,238.147,307.307,238.147z M349.973,349.08H315.84v-39.253
				c0-11.093-9.387-20.48-20.48-20.48H153.707v-34.133h153.6c23.893,0,42.667,18.773,42.667,42.667V349.08z"/>
			<path fill="white" d="M338.88,385.773c-3.413-3.413-8.533-3.413-11.947,0l-17.067,17.067c-12.8,12.8-12.8,33.28,0,46.08
				c5.973,5.973,14.507,9.387,23.04,9.387s17.067-2.56,23.04-9.387c12.8-12.8,12.8-33.28,0-46.08L338.88,385.773z M344,436.973
				c-5.973,5.973-16.213,5.973-22.187,0s-5.973-16.213,0-22.187l11.093-11.093L344,414.787C349.973,420.76,349.973,431,344,436.973z
				"/>
		</g>
	</g>
</g>
<g>
</g>
<g>
</g>
<g>
</g>
<g>
</g>
<g>
</g>
<g>
</g>
<g>
</g>
<g>
</g>
<g>
</g>
<g>
</g>
<g>
</g>
<g>
</g>
<g>
</g>
<g>
</g>
<g>
</g>
</svg>
